<svg width="30" height="13" fill="none" xmlns="http://www.w3.org/2000/svg"><path d="M8.781 4.61c0 1.277-.377 2.264-1.133 2.962-.75.692-1.817 1.039-3.203 1.039h-.867V12.4H.492V.978h3.953c1.443 0 2.526.315 3.25.945.724.63 1.086 1.526 1.086 2.688zM3.578 6.096h.563c.463 0 .83-.13 1.101-.39.276-.26.414-.62.414-1.079 0-.77-.427-1.156-1.281-1.156h-.797v2.625zm16.719.352c0 1.906-.526 3.375-1.578 4.406-1.047 1.031-2.521 1.547-4.422 1.547h-3.695V.978h3.953c1.833 0 3.247.469 4.242 1.406 1 .938 1.5 2.292 1.5 4.063zm-3.203.11c0-1.048-.209-1.824-.625-2.329-.412-.505-1.04-.758-1.883-.758h-.899V9.87h.688c.938 0 1.625-.271 2.063-.813.437-.547.656-1.38.656-2.5zM25.39 12.4h-3.04V.978h6.75v2.477h-3.71v2.18h3.422V8.11H25.39v4.29z" fill="#fff"/></svg>